<svg width="208" height="208" viewBox="0 0 208 208" fill="none" xmlns="http://www.w3.org/2000/svg">
<rect opacity="0.4" x="42.4707" y="20.2166" width="149.059" height="149.059" rx="74.5293" fill="#58FFAC"/>
<path d="M59.0625 156.959C54.1498 158.949 49.2584 154.058 51.2486 149.145L92.7635 46.6697C94.3766 42.6879 99.5293 41.6421 102.567 44.6799L163.528 105.641C166.566 108.678 165.52 113.831 161.538 115.444L59.0625 156.959Z" fill="white" stroke="#12DF30" stroke-width="2"/>
<path d="M94.937 43.8862C96.0506 42.7726 98.0154 42.3282 100.954 42.8367C103.861 43.3395 107.484 44.7411 111.598 46.9647C119.813 51.4057 129.774 59.0126 139.507 68.7454C149.24 78.4781 156.846 88.4395 161.287 96.6544C163.511 100.768 164.913 104.391 165.416 107.298C165.924 110.237 165.48 112.202 164.366 113.315C163.252 114.429 161.288 114.873 158.349 114.365C155.442 113.862 151.819 112.46 147.705 110.237C139.49 105.796 129.529 98.1887 119.796 88.456C110.063 78.7232 102.457 68.7618 98.0156 60.547C95.7919 56.4337 94.3903 52.81 93.8875 49.9035C93.379 46.9646 93.8234 44.9997 94.937 43.8862Z" fill="#17A931" stroke="#12DF30" stroke-width="2"/>
<mask id="mask0_100_2" style="mask-type:alpha" maskUnits="userSpaceOnUse" x="49" y="41" width="118" height="118">
<path d="M59.0625 156.959C54.1498 158.949 49.2584 154.058 51.2486 149.145L92.7635 46.6697C94.3766 42.6879 99.5293 41.6421 102.567 44.6799L163.528 105.641C166.566 108.678 165.52 113.831 161.538 115.444L59.0625 156.959Z" fill="white" stroke="#17A931" stroke-width="2"/>
</mask>
<g mask="url(#mask0_100_2)">
<path d="M78.4174 55.2416C75.3223 58.3366 77.0025 65.5851 82.184 74.6303C86.7683 82.6331 94.0933 92.0423 103.277 101.226C112.46 110.409 121.869 117.734 129.872 122.318C138.917 127.5 146.166 129.18 149.261 126.085" stroke="#12DF30" stroke-width="2"/>
<path d="M60.4223 72.7762C57.3272 75.8713 59.0074 83.1198 64.1888 92.165C68.7731 100.168 76.0982 109.577 85.2815 118.76C94.4648 127.944 103.874 135.269 111.877 139.853C120.922 145.034 128.17 146.715 131.266 143.619" stroke="#12DF30" stroke-width="2"/>
<path d="M43.8129 89.8456C40.7178 92.9406 42.398 100.189 47.5795 109.234C52.1638 117.237 59.4888 126.646 68.6721 135.83C77.8554 145.013 87.2646 152.338 95.2674 156.922C104.313 162.104 111.561 163.784 114.656 160.689" stroke="#12DF30" stroke-width="2"/>
</g>
<path d="M134.949 18.1601C135.335 17.4978 136.292 17.4978 136.678 18.1601L139.794 23.5113C139.936 23.7539 140.172 23.9259 140.447 23.9853L146.499 25.2959C147.248 25.4581 147.544 26.3681 147.033 26.9396L142.907 31.5574C142.72 31.7667 142.63 32.0451 142.658 32.3244L143.282 38.4856C143.359 39.2481 142.585 39.8105 141.884 39.5014L136.217 37.0042C135.96 36.891 135.667 36.891 135.41 37.0042L129.743 39.5014C129.042 39.8105 128.268 39.2481 128.345 38.4856L128.969 32.3244C128.997 32.0451 128.907 31.7667 128.72 31.5574L124.594 26.9396C124.083 26.3681 124.379 25.4581 125.128 25.2959L131.18 23.9853C131.455 23.9259 131.691 23.7539 131.833 23.5113L134.949 18.1601Z" fill="#12DF30"/>
<path d="M182.11 42.0351C182.496 41.3728 183.453 41.3728 183.839 42.0351L186.955 47.3863C187.097 47.6289 187.334 47.8009 187.608 47.8603L193.66 49.1709C194.409 49.3331 194.705 50.2431 194.194 50.8146L190.068 55.4324C189.881 55.6417 189.791 55.9201 189.819 56.1994L190.443 62.3606C190.52 63.1231 189.746 63.6855 189.045 63.3764L183.378 60.8792C183.121 60.766 182.828 60.766 182.571 60.8792L176.905 63.3764C176.203 63.6855 175.429 63.1231 175.506 62.3606L176.13 56.1994C176.158 55.9201 176.068 55.6417 175.881 55.4324L171.755 50.8146C171.244 50.2431 171.54 49.3331 172.289 49.1709L178.341 47.8603C178.616 47.8009 178.852 47.6289 178.994 47.3863L182.11 42.0351Z" fill="#12DF30"/>
<path d="M155.756 59.9621C156.149 59.3446 157.05 59.3446 157.443 59.9621L159.188 62.7045C159.267 62.828 159.372 62.9327 159.495 63.0112L162.238 64.7566C162.855 65.1495 162.855 66.0509 162.238 66.4439L159.495 68.1892C159.372 68.2678 159.267 68.3725 159.188 68.4959L157.443 71.2384C157.05 71.8558 156.149 71.8558 155.756 71.2384L154.011 68.4959C153.932 68.3725 153.827 68.2678 153.704 68.1892L150.961 66.4439C150.344 66.0509 150.344 65.1495 150.961 64.7566L153.704 63.0112C153.827 62.9327 153.932 62.828 154.011 62.7045L155.756 59.9621Z" fill="#12DF30"/>
<circle cx="158.6" cy="40.5515" r="3.375" fill="#12DF30"/>
<circle cx="170.359" cy="86.2028" r="5.27625" fill="#12DF30"/>
</svg>
