<svg width="1440" height="548" viewBox="0 0 1440 548" fill="none" xmlns="http://www.w3.org/2000/svg">
<path d="M1600.82 90.2742C1542.39 58.7917 1389.43 22.1165 1245.08 127.275" stroke="#CBD7EA" stroke-width="1.5" stroke-linecap="round" stroke-dasharray="9 9"/>
<path d="M531.883 451.314H479.817C466.348 451.315 453.011 448.668 440.568 443.524C428.126 438.38 416.822 430.839 407.302 421.334L360.559 374.701C336.966 351.205 304.988 338.012 271.651 338.021H-81.5923C-89.1678 338.014 -96.6677 339.524 -103.648 342.459C-110.629 345.394 -116.949 349.696 -122.234 355.111C-127.52 360.525 -131.664 366.941 -134.421 373.981C-137.177 381.02 -138.492 388.539 -138.285 396.094V400.536C-138.066 408.407 -139.431 416.242 -142.299 423.577C-145.167 430.912 -149.48 437.599 -154.984 443.243C-160.488 448.886 -167.07 453.371 -174.341 456.433C-181.612 459.494 -189.425 461.07 -197.317 461.067H-647.802C-654.556 461.062 -661.245 462.385 -667.486 464.961C-673.726 467.538 -679.396 471.317 -684.172 476.082L-703.227 495.167C-711.101 503.013 -721.775 507.423 -732.904 507.427H-754.223C-762.048 507.427 -769.552 510.528 -775.085 516.048C-780.618 521.567 -783.727 529.054 -783.727 536.86V546.242H603.999V523.26C603.992 504.181 596.392 485.885 582.869 472.394C569.346 458.902 551.007 451.32 531.883 451.314Z" fill="#CBD7EA"/>
<path d="M2177.78 451.314H2125.72C2112.25 451.315 2098.91 448.668 2086.47 443.524C2074.03 438.38 2062.72 430.839 2053.2 421.334L2006.46 374.701C1982.87 351.205 1950.89 338.012 1917.55 338.021H1564.31C1556.73 338.014 1549.23 339.524 1542.25 342.459C1535.27 345.394 1528.95 349.696 1523.67 355.111C1518.38 360.525 1514.24 366.941 1511.48 373.981C1508.72 381.02 1507.41 388.539 1507.62 396.094V400.536C1507.84 408.407 1506.47 416.242 1503.6 423.577C1500.74 430.912 1496.42 437.599 1490.92 443.243C1485.41 448.886 1478.83 453.371 1471.56 456.433C1464.29 459.494 1456.48 461.07 1448.59 461.067H998.1C991.346 461.062 984.657 462.385 978.417 464.961C972.176 467.538 966.506 471.317 961.731 476.082L942.676 495.167C934.801 503.013 924.128 507.423 912.998 507.427H891.679C883.854 507.427 876.35 510.528 870.817 516.048C865.284 521.567 862.176 529.054 862.176 536.86V546.242H2249.9V523.26C2249.89 504.181 2242.29 485.885 2228.77 472.394C2215.25 458.902 2196.91 451.32 2177.78 451.314Z" fill="#CBD7EA"/>
<path d="M2157.56 547.158H1148.8L1344.41 352.016C1352.01 344.446 1361.02 338.443 1370.95 334.351C1380.87 330.258 1391.51 328.157 1402.24 328.166H1904.25C1925.89 328.172 1946.65 336.75 1961.96 352.016L2157.56 547.158Z" fill="#CBD7EA"/>
<path d="M237.085 546.241H1254.08" stroke="#CBD7EA" stroke-width="2"/>
<path d="M272.242 546.067H411.659L411.659 275.697H272.242V546.067Z" fill="white" stroke="#CBD7EA" stroke-width="1.5" stroke-linejoin="round"/>
<path d="M140.878 546.067H85.25V184.856L140.878 225.669V546.067Z" fill="white" stroke="#CBD7EA" stroke-width="1.5" stroke-linejoin="round"/>
<path d="M87.9164 184.856H-23.1611V546.241L87.9164 545.741V184.856Z" fill="white" stroke="#CBD7EA" stroke-width="1.5" stroke-linejoin="round"/>
<path d="M-10.5403 219.146H75.3281V231.238H-10.5403V219.146Z" fill="#CBD7EA" stroke="#CBD7EA" stroke-width="1.5" stroke-linejoin="round"/>
<path d="M-10.5403 248.057H75.3281V260.149H-10.5403V248.057Z" fill="#CBD7EA" stroke="#CBD7EA" stroke-width="1.5" stroke-linejoin="round"/>
<path d="M75.2959 277.001V289.093H-10.5725V277.001H75.2959Z" fill="#07C607" stroke="#07C607" stroke-width="1.5" stroke-linejoin="round"/>
<path d="M-10.5403 305.912H75.3281V318.004H-10.5403V305.912Z" fill="#CBD7EA" stroke="#CBD7EA" stroke-width="1.5" stroke-linejoin="round"/>
<path d="M-10.5403 334.856H75.3281V346.948H-10.5403V334.856Z" fill="#CBD7EA" stroke="#CBD7EA" stroke-width="1.5" stroke-linejoin="round"/>
<path d="M-10.5403 363.767H75.3281V375.859H-10.5403V363.767Z" fill="#CBD7EA" stroke="#CBD7EA" stroke-width="1.5" stroke-linejoin="round"/>
<path d="M-10.5403 392.711H75.3281V404.803H-10.5403V392.711Z" fill="#CBD7EA" stroke="#CBD7EA" stroke-width="1.5" stroke-linejoin="round"/>
<path d="M-10.5403 421.622H75.3281V433.714H-10.5403V421.622Z" fill="#CBD7EA" stroke="#CBD7EA" stroke-width="1.5" stroke-linejoin="round"/>
<path d="M-10.5403 450.566H75.3281V462.657H-10.5403V450.566Z" fill="#CBD7EA" stroke="#CBD7EA" stroke-width="1.5" stroke-linejoin="round"/>
<path d="M-10.5403 479.509H75.3281V491.601H-10.5403V479.509Z" fill="#CBD7EA" stroke="#CBD7EA" stroke-width="1.5" stroke-linejoin="round"/>
<path d="M339.064 275.729H220.029V546.099H339.064V275.729Z" fill="white" stroke="#CBD7EA" stroke-width="1.5" stroke-linejoin="round"/>
<path d="M411.659 358.877H220.029V368.428H411.659V358.877Z" fill="#CBD7EA" stroke="#CBD7EA" stroke-width="1.5" stroke-linejoin="round"/>
<path d="M411.659 454.509H220.029V464.059H411.659V454.509Z" fill="#CBD7EA" stroke="#CBD7EA" stroke-width="1.5" stroke-linejoin="round"/>
<path d="M249.054 298.24H234.443V337.186H249.054V298.24Z" fill="#CBD7EA" stroke="#CBD7EA" stroke-width="1.5" stroke-linejoin="round"/>
<path d="M286.664 298.24H272.054V337.186H286.664V298.24Z" fill="#CBD7EA" stroke="#CBD7EA" stroke-width="1.5" stroke-linejoin="round"/>
<path d="M324.274 298.24H309.664V337.186H324.274V298.24Z" fill="#CBD7EA" stroke="#CBD7EA" stroke-width="1.5" stroke-linejoin="round"/>
<path d="M249.054 391.409H234.443V430.355H249.054V391.409Z" fill="#CBD7EA" stroke="#CBD7EA" stroke-width="1.5" stroke-linejoin="round"/>
<path d="M286.664 391.409H272.054V430.355H286.664V391.409Z" fill="#07C607" stroke="#07C607" stroke-width="1.5" stroke-linejoin="round"/>
<path d="M324.274 391.409H309.664V430.355H324.274V391.409Z" fill="#CBD7EA" stroke="#CBD7EA" stroke-width="1.5" stroke-linejoin="round"/>
<path d="M249.054 487.041H234.443V525.987H249.054V487.041Z" fill="#CBD7EA" stroke="#CBD7EA" stroke-width="1.5" stroke-linejoin="round"/>
<path d="M286.664 487.041H272.054V525.987H286.664V487.041Z" fill="#CBD7EA" stroke="#CBD7EA" stroke-width="1.5" stroke-linejoin="round"/>
<path d="M324.274 487.041H309.664V525.987H324.274V487.041Z" fill="#CBD7EA" stroke="#CBD7EA" stroke-width="1.5" stroke-linejoin="round"/>
<path d="M163.936 450.305H19.2676V546.099H163.936V450.305Z" fill="white" stroke="#CBD7EA" stroke-width="1.5" stroke-linejoin="round"/>
<path d="M237.086 450.207L202.81 392.287L163.969 450.207V546.099H237.086V450.207Z" fill="white" stroke="#CBD7EA" stroke-width="1.5" stroke-linejoin="round"/>
<path d="M90.5258 374.393H65.6426V405.585H90.5258V374.393Z" fill="#CBD7EA" stroke="#CBD7EA" stroke-width="1.5" stroke-linejoin="round"/>
<path d="M202.903 391.961H57.4219L18.3623 450.305H163.844L202.903 391.961Z" fill="white" stroke="#CBD7EA" stroke-width="1.5" stroke-linejoin="round"/>
<path d="M76.3719 467.188H32.0518V485.441H76.3719V467.188Z" fill="#CBD7EA" stroke="#CBD7EA" stroke-width="1.5" stroke-linejoin="round"/>
<path d="M148.967 467.188H104.646V485.441H148.967V467.188Z" fill="#CBD7EA" stroke="#CBD7EA" stroke-width="1.5" stroke-linejoin="round"/>
<path d="M76.3719 497.11H32.0518V515.363H76.3719V497.11Z" fill="#CBD7EA" stroke="#CBD7EA" stroke-width="1.5" stroke-linejoin="round"/>
<path d="M148.967 497.11H104.646V515.363H148.967V497.11Z" fill="#07C607" stroke="#07C607" stroke-width="1.5" stroke-linejoin="round"/>
<path d="M1352.01 546.067H1299.02V185.008L1352.01 225.803V546.067Z" fill="white" stroke="#CBD7EA" stroke-width="1.5" stroke-linejoin="round"/>
<path d="M1299.02 184.682H1187.87V546.067H1299.02V184.682Z" fill="white" stroke="#CBD7EA" stroke-width="1.5" stroke-linejoin="round"/>
<path d="M1287.17 231.803V218.205H1199.75V231.803H1287.17Z" fill="#CBD7EA" stroke="#CBD7EA" stroke-width="1.5" stroke-linejoin="round"/>
<path d="M1287.17 260.761V247.163H1199.75V260.761H1287.17Z" fill="#CBD7EA" stroke="#CBD7EA" stroke-width="1.5" stroke-linejoin="round"/>
<path d="M1287.17 289.686V276.088H1199.75V289.686H1287.17Z" fill="#07C607" stroke="#07C607" stroke-width="1.5" stroke-linejoin="round"/>
<path d="M1287.17 318.644V305.046H1199.75V318.644H1287.17Z" fill="#CBD7EA" stroke="#CBD7EA" stroke-width="1.5" stroke-linejoin="round"/>
<path d="M1287.17 347.602V334.003H1199.75V347.602H1287.17Z" fill="#CBD7EA" stroke="#CBD7EA" stroke-width="1.5" stroke-linejoin="round"/>
<path d="M1287.2 376.527V362.929H1199.78V376.527H1287.2Z" fill="#CBD7EA" stroke="#CBD7EA" stroke-width="1.5" stroke-linejoin="round"/>
<path d="M1287.17 405.485V391.886H1199.75V405.485H1287.17Z" fill="#CBD7EA" stroke="#CBD7EA" stroke-width="1.5" stroke-linejoin="round"/>
<path d="M1287.2 434.41V420.812H1199.78V434.41H1287.2Z" fill="#CBD7EA" stroke="#CBD7EA" stroke-width="1.5" stroke-linejoin="round"/>
<path d="M1287.17 463.367V449.769H1199.75V463.367H1287.17Z" fill="#CBD7EA" stroke="#CBD7EA" stroke-width="1.5" stroke-linejoin="round"/>
<path d="M1287.17 492.292V478.694H1199.75V492.292H1287.17Z" fill="#CBD7EA" stroke="#CBD7EA" stroke-width="1.5" stroke-linejoin="round"/>
<path d="M1141.49 546.067H1243.21V237.608H1141.49V546.067Z" fill="white" stroke="#CBD7EA" stroke-width="1.5" stroke-linejoin="round"/>
<path d="M1170.57 237.608H1051.46V546.067H1170.57V237.608Z" fill="white" stroke="#CBD7EA" stroke-width="1.5" stroke-linejoin="round"/>
<path d="M1080.5 268.098H1065.88V288.838H1080.5V268.098Z" fill="#CBD7EA" stroke="#CBD7EA" stroke-width="1.5" stroke-linejoin="round"/>
<path d="M1118.32 268.098H1103.71V288.838H1118.32V268.098Z" fill="#CBD7EA" stroke="#CBD7EA" stroke-width="1.5" stroke-linejoin="round"/>
<path d="M1156.11 268.098H1141.5V288.838H1156.11V268.098Z" fill="#CBD7EA" stroke="#CBD7EA" stroke-width="1.5" stroke-linejoin="round"/>
<path d="M1080.5 310.948H1065.88V331.688H1080.5V310.948Z" fill="#CBD7EA" stroke="#CBD7EA" stroke-width="1.5" stroke-linejoin="round"/>
<path d="M1118.32 310.948H1103.71V331.688H1118.32V310.948Z" fill="#07C607" stroke="#07C607" stroke-width="1.5" stroke-linejoin="round"/>
<path d="M1156.11 310.948H1141.5V331.688H1156.11V310.948Z" fill="#CBD7EA" stroke="#CBD7EA" stroke-width="1.5" stroke-linejoin="round"/>
<path d="M1080.5 353.83H1065.88V374.57H1080.5V353.83Z" fill="#CBD7EA" stroke="#CBD7EA" stroke-width="1.5" stroke-linejoin="round"/>
<path d="M1118.32 353.83H1103.71V374.57H1118.32V353.83Z" fill="#CBD7EA" stroke="#CBD7EA" stroke-width="1.5" stroke-linejoin="round"/>
<path d="M1156.11 353.83H1141.5V374.57H1156.11V353.83Z" fill="#CBD7EA" stroke="#CBD7EA" stroke-width="1.5" stroke-linejoin="round"/>
<path d="M1080.5 396.68H1065.88V417.42H1080.5V396.68Z" fill="#CBD7EA" stroke="#CBD7EA" stroke-width="1.5" stroke-linejoin="round"/>
<path d="M1118.32 396.68H1103.71V417.42H1118.32V396.68Z" fill="#CBD7EA" stroke="#CBD7EA" stroke-width="1.5" stroke-linejoin="round"/>
<path d="M1156.11 396.68H1141.5V417.42H1156.11V396.68Z" fill="#CBD7EA" stroke="#CBD7EA" stroke-width="1.5" stroke-linejoin="round"/>
<path d="M1080.5 439.562H1065.88V460.302H1080.5V439.562Z" fill="#CBD7EA" stroke="#CBD7EA" stroke-width="1.5" stroke-linejoin="round"/>
<path d="M1118.32 439.562H1103.71V460.302H1118.32V439.562Z" fill="#CBD7EA" stroke="#CBD7EA" stroke-width="1.5" stroke-linejoin="round"/>
<path d="M1156.11 439.562H1141.5V460.302H1156.11V439.562Z" fill="#CBD7EA" stroke="#CBD7EA" stroke-width="1.5" stroke-linejoin="round"/>
<path d="M1080.5 482.412H1065.88V503.152H1080.5V482.412Z" fill="#CBD7EA" stroke="#CBD7EA" stroke-width="1.5" stroke-linejoin="round"/>
<path d="M1118.32 482.412H1103.71V503.152H1118.32V482.412Z" fill="#CBD7EA" stroke="#CBD7EA" stroke-width="1.5" stroke-linejoin="round"/>
<path d="M1156.11 482.412H1141.5V503.152H1156.11V482.412Z" fill="#CBD7EA" stroke="#CBD7EA" stroke-width="1.5" stroke-linejoin="round"/>
<path d="M1479.06 428.148H1388.33V546.066H1479.06V428.148Z" fill="white" stroke="#CBD7EA" stroke-width="1.5" stroke-linejoin="round"/>
<path d="M1392.84 546.067H1317.62V428.369L1355.21 402.061L1392.84 428.369V546.067Z" fill="white" stroke="#CBD7EA" stroke-width="1.5" stroke-linejoin="round"/>
<path d="M1355.21 402.061H1440.97L1479.06 428.149H1392.84L1355.21 402.061Z" fill="white" stroke="#CBD7EA" stroke-width="1.5" stroke-linejoin="round"/>
<path d="M1426.58 439.627H1407.75V465.128H1426.58V439.627Z" fill="#CBD7EA" stroke="#CBD7EA" stroke-width="1.5" stroke-linejoin="round"/>
<path d="M1426.58 486.521H1407.75V512.022H1426.58V486.521Z" fill="#07C607" stroke="#07C607" stroke-width="1.5" stroke-linejoin="round"/>
<path d="M226.305 449.695H220.71V546.067H226.305V449.695Z" fill="#929EB0"/>
<path d="M256.87 419.927C258.463 414.862 258.882 409.502 258.095 404.252C257.309 399.002 255.337 393.999 252.328 389.621C249.32 385.242 245.354 381.602 240.73 378.976C236.105 376.35 230.944 374.807 225.634 374.462C219.962 374.105 214.288 375.126 209.099 377.436C203.909 379.746 199.358 383.276 195.835 387.726C192.313 392.175 189.924 397.41 188.874 402.981C187.824 408.553 188.144 414.296 189.805 419.718C191.153 423.892 191.651 428.293 191.271 432.662C190.891 437.031 189.64 441.28 187.591 445.16C184.25 451.333 182.572 458.266 182.72 465.28C182.868 472.294 184.837 479.149 188.435 485.177C192.033 491.205 197.136 496.199 203.247 499.67C209.358 503.142 216.266 504.973 223.299 504.985C230.331 504.996 237.246 503.187 243.368 499.736C249.49 496.284 254.609 491.307 258.227 485.29C261.844 479.274 263.836 472.425 264.007 465.411C264.177 458.398 262.522 451.46 259.201 445.276C257.141 441.418 255.874 437.189 255.473 432.836C255.073 428.483 255.548 424.095 256.87 419.927Z" fill="#07C607"/>
<path d="M1265.17 523.585C1265.15 520.032 1264.22 516.543 1262.47 513.45C1260.72 510.358 1258.2 507.766 1255.15 505.922C1252.11 504.078 1248.64 503.044 1245.08 502.919C1241.53 502.793 1237.99 503.581 1234.83 505.206C1232.37 501.181 1228.9 497.871 1224.76 495.605C1220.61 493.34 1215.95 492.2 1211.23 492.298C1206.51 492.397 1201.89 493.731 1197.85 496.168C1193.81 498.604 1190.48 502.057 1188.19 506.182C1187.7 506.182 1187.21 506.266 1186.74 506.333C1183.92 504.788 1180.75 503.978 1177.53 503.978C1174.32 503.977 1171.15 504.786 1168.33 506.329C1165.5 507.873 1163.12 510.102 1161.39 512.809C1159.66 515.516 1158.64 518.615 1158.43 521.819C1152.14 522.226 1146.22 524.918 1141.78 529.386C1137.35 533.855 1134.72 539.789 1134.37 546.066H1287.55C1286.4 540.557 1283.68 535.499 1279.71 531.507C1275.73 527.515 1270.68 524.763 1265.17 523.585V523.585Z" fill="#07C607"/>
<path d="M278.157 216.967C270.812 193.471 234.289 146.894 146.95 148.554C37.7751 150.629 -55.4133 109.979 -56.8895 1.0098" stroke="#CBD7EA" stroke-width="1.5" stroke-linecap="round" stroke-dasharray="9 9"/>
<path d="M297.999 226.313C297.999 243.704 278.675 257.232 278.675 257.232C278.675 257.232 259.351 243.704 259.351 226.313C259.351 221.187 261.387 216.272 265.011 212.648C268.635 209.024 273.55 206.988 278.675 206.988C283.8 206.988 288.715 209.024 292.339 212.648C295.963 216.272 297.999 221.187 297.999 226.313V226.313Z" fill="#07C607" stroke="#5870FF" stroke-width="0.783856" stroke-linecap="round" stroke-linejoin="round"/>
<path d="M278.675 234.04C282.944 234.04 286.405 230.58 286.405 226.311C286.405 222.042 282.944 218.581 278.675 218.581C274.406 218.581 270.945 222.042 270.945 226.311C270.945 230.58 274.406 234.04 278.675 234.04Z" fill="white" stroke="white" stroke-width="0.783856" stroke-linecap="round" stroke-linejoin="round"/>
<path d="M1262.82 126.069C1262.82 143.461 1243.49 156.988 1243.49 156.988C1243.49 156.988 1224.17 143.461 1224.17 126.069C1224.17 120.944 1226.2 116.029 1229.83 112.405C1233.45 108.781 1238.37 106.745 1243.49 106.745C1248.62 106.745 1253.53 108.781 1257.16 112.405C1260.78 116.029 1262.82 120.944 1262.82 126.069V126.069Z" fill="#07C607" stroke="#07C607" stroke-width="0.783856" stroke-linecap="round" stroke-linejoin="round"/>
<path d="M1243.49 133.797C1247.76 133.797 1251.22 130.336 1251.22 126.067C1251.22 121.798 1247.76 118.338 1243.49 118.338C1239.22 118.338 1235.76 121.798 1235.76 126.067C1235.76 130.336 1239.22 133.797 1243.49 133.797Z" fill="white" stroke="white" stroke-width="0.783856" stroke-linecap="round" stroke-linejoin="round"/>
</svg>
