<svg width="208" height="208" viewBox="0 0 208 208" fill="none" xmlns="http://www.w3.org/2000/svg">
<rect opacity="0.4" x="42.4707" y="20.2166" width="149.059" height="149.059" rx="74.5293" fill="#58FFAC"/>
<path d="M59.0634 156.959C54.1508 158.949 49.2593 154.058 51.2496 149.145L92.7645 46.6697C94.3776 42.6879 99.5303 41.6421 102.568 44.6799L163.529 105.641C166.567 108.678 165.521 113.831 161.539 115.444L59.0634 156.959Z" fill="white" stroke="#12DF30" stroke-width="2"/>
<path d="M94.938 43.8862C96.0515 42.7726 98.0163 42.3282 100.955 42.8367C103.862 43.3395 107.485 44.7411 111.599 46.9647C119.814 51.4057 129.775 59.0126 139.508 68.7454C149.241 78.4781 156.847 88.4395 161.288 96.6544C163.512 100.768 164.914 104.391 165.417 107.298C165.925 110.237 165.481 112.202 164.367 113.315C163.253 114.429 161.289 114.873 158.35 114.365C155.443 113.862 151.82 112.46 147.706 110.237C139.491 105.796 129.53 98.1887 119.797 88.456C110.064 78.7232 102.458 68.7618 98.0165 60.547C95.7929 56.4337 94.3913 52.81 93.8885 49.9035C93.38 46.9646 93.8244 44.9997 94.938 43.8862Z" fill="#17A931" stroke="#12DF30" stroke-width="2"/>
<mask id="mask0_100_2" style="mask-type:alpha" maskUnits="userSpaceOnUse" x="49" y="41" width="118" height="118">
<path d="M59.0634 156.959C54.1508 158.949 49.2593 154.058 51.2496 149.145L92.7645 46.6697C94.3776 42.6879 99.5303 41.6421 102.568 44.6799L163.529 105.641C166.567 108.678 165.521 113.831 161.539 115.444L59.0634 156.959Z" fill="white" stroke="#17A931" stroke-width="2"/>
</mask>
<g mask="url(#mask0_100_2)">
<path d="M78.4184 55.2416C75.3233 58.3366 77.0035 65.5851 82.1849 74.6303C86.7692 82.6331 94.0943 92.0423 103.278 101.226C112.461 110.409 121.87 117.734 129.873 122.318C138.918 127.5 146.167 129.18 149.262 126.085" stroke="#12DF30" stroke-width="2"/>
<path d="M60.4237 72.7762C57.3287 75.8713 59.0089 83.1198 64.1903 92.165C68.7746 100.168 76.0996 109.577 85.283 118.76C94.4663 127.944 103.875 135.269 111.878 139.853C120.923 145.034 128.172 146.715 131.267 143.619" stroke="#12DF30" stroke-width="2"/>
<path d="M43.8143 89.8456C40.7193 92.9406 42.3995 100.189 47.5809 109.234C52.1652 117.237 59.4903 126.646 68.6736 135.83C77.8569 145.013 87.2661 152.338 95.2688 156.922C104.314 162.104 111.563 163.784 114.658 160.689" stroke="#12DF30" stroke-width="2"/>
</g>
<path d="M134.95 18.1601C135.336 17.4978 136.292 17.4978 136.678 18.1601L139.795 23.5113C139.936 23.7539 140.173 23.9259 140.447 23.9853L146.5 25.2959C147.249 25.4581 147.544 26.3681 147.034 26.9396L142.908 31.5574C142.721 31.7667 142.63 32.0451 142.658 32.3244L143.282 38.4856C143.359 39.2481 142.585 39.8105 141.884 39.5014L136.217 37.0042C135.96 36.891 135.668 36.891 135.411 37.0042L129.744 39.5014C129.043 39.8105 128.269 39.2481 128.346 38.4856L128.97 32.3244C128.998 32.0451 128.907 31.7667 128.72 31.5574L124.594 26.9396C124.084 26.3681 124.379 25.4581 125.128 25.2959L131.181 23.9853C131.455 23.9259 131.692 23.7539 131.833 23.5113L134.95 18.1601Z" fill="#12DF30"/>
<path d="M182.111 42.0351C182.497 41.3728 183.453 41.3728 183.839 42.0351L186.956 47.3863C187.097 47.6289 187.334 47.8009 187.608 47.8603L193.661 49.1709C194.41 49.3331 194.706 50.2431 194.195 50.8146L190.069 55.4324C189.882 55.6417 189.791 55.9201 189.82 56.1994L190.443 62.3606C190.521 63.1231 189.747 63.6855 189.045 63.3764L183.378 60.8792C183.121 60.766 182.829 60.766 182.572 60.8792L176.905 63.3764C176.204 63.6855 175.43 63.1231 175.507 62.3606L176.131 56.1994C176.159 55.9201 176.068 55.6417 175.881 55.4324L171.755 50.8146C171.245 50.2431 171.54 49.3331 172.289 49.1709L178.342 47.8603C178.616 47.8009 178.853 47.6289 178.994 47.3863L182.111 42.0351Z" fill="#12DF30"/>
<path d="M155.756 59.9621C156.149 59.3446 157.051 59.3446 157.444 59.9621L159.189 62.7045C159.268 62.828 159.372 62.9327 159.496 63.0112L162.238 64.7566C162.856 65.1495 162.856 66.0509 162.238 66.4439L159.496 68.1892C159.372 68.2678 159.268 68.3725 159.189 68.4959L157.444 71.2384C157.051 71.8558 156.149 71.8558 155.756 71.2384L154.011 68.4959C153.932 68.3725 153.828 68.2678 153.704 68.1892L150.962 66.4439C150.344 66.0509 150.344 65.1495 150.962 64.7566L153.704 63.0112C153.828 62.9327 153.932 62.828 154.011 62.7045L155.756 59.9621Z" fill="#12DF30"/>
<circle cx="158.6" cy="40.5515" r="3.375" fill="#12DF30"/>
<circle cx="170.36" cy="86.2028" r="5.27625" fill="#12DF30"/>
</svg>
